<?xml version="1.0" encoding="UTF-8"?>
<svg enable-background="new 0 0 1309.876 1759.653" version="1.1" viewBox="0 0 1309.876 1759.653" xmlns="http://www.w3.org/2000/svg">
 <path d="m841.5 402.41c177.96-0.292 162.23-7.295 161.93 126.03 54.869-35.873 109.82-71.612 164.73-107.43 15.062 2.596 29.873 6.536 44.242 11.733 0.087 97.108 0.029 194.22 0.035 291.34-14.404 5.296-29.302 9.137-44.393 11.826-54.915-35.681-109.75-71.502-164.61-107.27 0.133 81.507 3.638 86.956-14.451 100.72-24.12 18.346-9.148 13.758-432.98 13.758-19.799 0.378-42.665-6.387-54.519-22.086-7.827-10.319-6.312-14.797-6.256-63.063-61.806 12.571-123.68 24.833-185.48 37.439 0.676 6.027 1.671 14.696-1.053 18.175-4.062-4.574-4.836-11.017-6.408-16.714-13.385 2.75-109.71 33.307-187.97 38.358-3.893 0.198-17.037 0.906-19.002-2.345 2.642-13.392 154.98-47.905 204.97-46.68-0.722-4.734-3.051-20.947-0.308-24.891 3.876-0.654 7.707 20.183 8.392 23.785 62.271-12.623 124.58-25.083 186.86-37.66-0.013-49.849 0.962-124.11-0.564-140.04-33.116 0.801-66.284-7.457-95.177-23.618-163.92-91.677-91.395-341.9 103.04-326.9 46.382 3.577 78.351 23.831 78.351 23.831 4.417 0.21 7.712-9.99 10.282-14.305 64.039-107.5 221.03-114.84 296.52-20.217 66.984 83.957 42.84 202.09-46.194 256.24z"/>
 <path d="m629.67 752.83c78.474-0.105 156.95-0.035 235.42-0.035-26.032 121.24-204.2 128.9-235.42 0.035z"/>
 <path d="m619.54 852.23c85.126 6e-3 170.24 6e-3 255.36 6e-3 0 27.656-0.064 55.311 0.035 82.972-14.13 0.023-28.255 0.035-42.379-0.012 1.408 2.221 377.93 727.72 381.47 734.8 0.873 1.63 0.664 3.905-0.815 5.145-2.331 2.042-6.811 7.564-10.231 3.573-171.42-311.98-405.75-738.22-408.49-743.48-14.852-0.012-29.71-0.017-44.562 6e-3 18.769 681.23 19.442 641.57 12.885 642.8-19.056-288.45-42.619-640.31-42.56-642.82-8.957-6e-3 -17.913-0.012-26.87 6e-3 -135.69 247.02-271.33 494.07-407.15 741.01-1.496-1.443-3.044-2.834-4.644-4.15 1.609-2.708 331.84-639.22 382.71-736.87-14.934-0.012-29.861 0.023-44.789-0.017 0.094-27.662 0.036-55.318 0.03-82.979z"/>
</svg>
